<svg xmlns="http://www.w3.org/2000/svg" version="1.1" xmlns:xlink="http://www.w3.org/1999/xlink" xmlns:svgjs="http://svgjs.dev/svgjs" width="66.6738" height="76.32"><svg style="width:100%;height:auto;font-size:80%;font-family:Abel;margin:10px 0 10px 0;" class="pikchr" viewBox="0 0 66.6738 76.32" data-pikchr-date="20250321215505" version="1.1" id="SvgjsSvg1806" sodipodi:docname="logo.svg" xml:space="preserve" inkscape:version="1.4 (e7c3feb1, 2024-10-09)" xmlns:inkscape="http://www.inkscape.org/namespaces/inkscape" xmlns:sodipodi="http://sodipodi.sourceforge.net/DTD/sodipodi-0.dtd" xmlns="http://www.w3.org/2000/svg" xmlns:svg="http://www.w3.org/2000/svg"><sodipodi:namedview id="SvgjsSodipodi:namedview1805" pagecolor="#ffffff" bordercolor="#000000" borderopacity="0.25" inkscape:showpageshadow="2" inkscape:pageopacity="0.0" inkscape:pagecheckerboard="0" inkscape:deskcolor="#d1d1d1" inkscape:zoom="11.504193" inkscape:cx="32.292574" inkscape:cy="39.203098" inkscape:window-width="1744" inkscape:window-height="1027" inkscape:window-x="57" inkscape:window-y="25" inkscape:window-maximized="0" inkscape:current-layer="svg1"></sodipodi:namedview><defs id="SvgjsDefs1804"></defs><def><style type="text/css">@import url(https://fonts.googleapis.com/css2?family=Abel:wght@400);</style></def><path d="m 33.336899,2.16 31.1769,18 v 36 l -31.1769,18 -31.1769003,-18 v -36 z" style="fill:none;stroke:#193d6f;stroke-width:2.16;stroke-linejoin:round" id="SvgjsPath1803"></path><text lengthAdjust="spacingAndGlyphs" x="33.3369" y="38.16" text-anchor="middle" fill="rgb(255,255,255)" font-size="80%" dominant-baseline="central" id="SvgjsText1802" svgjs:data="{&quot;leading&quot;:&quot;1.3&quot;}"></text><g inkscape:groupmode="layer" id="SvgjsG1801" inkscape:label="Layer 1"><g inkscape:groupmode="layer" id="SvgjsG1800" inkscape:label="Layer 2"><g inkscape:groupmode="layer" id="SvgjsG1799" inkscape:label="Layer 3"></g></g></g><g inkscape:groupmode="layer" id="SvgjsG1798" inkscape:label="Layer 4"></g><g inkscape:groupmode="layer" id="SvgjsG1797" inkscape:label="Layer 5"><g id="SvgjsG1796" transform="matrix(0.75113543,0,0,0.75113543,8.296373,0.14888142)"><g id="SvgjsG1795" style="font-size:80%;font-family:Abel;fill:#5f5fd3" transform="translate(2.8269467)"><path style="color:#000000;font-style:normal;font-variant:normal;font-weight:normal;font-stretch:normal;font-size:medium;line-height:normal;font-family:Abel;font-variant-ligatures:normal;font-variant-position:normal;font-variant-caps:normal;font-variant-numeric:normal;font-variant-alternates:normal;font-variant-east-asian:normal;font-feature-settings:normal;font-variation-settings:normal;text-indent:0;text-align:start;text-decoration-line:none;text-decoration-style:solid;text-decoration-color:#000000;letter-spacing:normal;word-spacing:normal;text-transform:none;writing-mode:lr-tb;direction:ltr;text-orientation:mixed;dominant-baseline:auto;baseline-shift:baseline;text-anchor:start;white-space:normal;shape-padding:0;shape-margin:0;inline-size:0;clip-rule:nonzero;display:inline;overflow:visible;visibility:visible;isolation:auto;mix-blend-mode:normal;color-interpolation:sRGB;color-interpolation-filters:linearRGB;solid-color:#000000;solid-opacity:1;vector-effect:none;fill:#5f5fd3;fill-opacity:1;fill-rule:nonzero;stroke:none;stroke-linecap:butt;stroke-linejoin:miter;stroke-miterlimit:4;stroke-dasharray:none;stroke-dashoffset:0;stroke-opacity:1;-inkscape-stroke:none;color-rendering:auto;image-rendering:auto;shape-rendering:auto;text-rendering:auto;enable-background:accumulate;stop-color:#000000;stop-opacity:1" d="m 17.118002,28.956024 c -0.127862,-0.332505 -0.01731,-0.763764 -0.05431,-1.133907 0,-2.624746 0,-5.249493 0,-7.874239 0.235634,-0.259049 0.659108,-0.06461 0.977114,-0.1248 8.568017,0 17.136034,0 25.704051,0 0.37928,0.131666 0.12364,0.643906 0.198281,0.958173 0.0015,2.671731 0.003,5.343461 0.0045,8.015192 -0.173781,0.418885 -0.431737,-0.202816 -0.64859,-0.316423 -0.776958,-0.749904 -1.622142,-1.446896 -2.520404,-2.034025 -1.012095,-0.718587 -2.139561,-1.274052 -3.26993,-1.787191 -0.550091,-0.215618 -1.122344,-0.426788 -1.700177,-0.590816 -0.631401,-0.257205 -1.330478,-0.307989 -1.987831,-0.487741 -1.104787,-0.253361 -2.244641,-0.21324 -3.367832,-0.328659 -1.358922,0.140201 -2.748181,0.111743 -4.066016,0.509098 -0.804847,0.123704 -1.557401,0.42361 -2.329461,0.670045 -0.903309,0.386972 -1.815939,0.765673 -2.649173,1.268001 -0.716997,0.382708 -1.37366,0.857802 -2.032212,1.325916 -0.772937,0.617933 -1.503926,1.286321 -2.203662,1.98571 l -0.04019,-0.04017 z" id="SvgjsPath1794"></path><path style="color:#000000;font-style:normal;font-variant:normal;font-weight:normal;font-stretch:normal;font-size:medium;line-height:normal;font-family:Abel;font-variant-ligatures:normal;font-variant-position:normal;font-variant-caps:normal;font-variant-numeric:normal;font-variant-alternates:normal;font-variant-east-asian:normal;font-feature-settings:normal;font-variation-settings:normal;text-indent:0;text-align:start;text-decoration-line:none;text-decoration-style:solid;text-decoration-color:#000000;letter-spacing:normal;word-spacing:normal;text-transform:none;writing-mode:lr-tb;direction:ltr;text-orientation:mixed;dominant-baseline:auto;baseline-shift:baseline;text-anchor:start;white-space:normal;shape-padding:0;shape-margin:0;inline-size:0;clip-rule:nonzero;display:inline;overflow:visible;visibility:visible;isolation:auto;mix-blend-mode:normal;color-interpolation:sRGB;color-interpolation-filters:linearRGB;solid-color:#000000;solid-opacity:1;vector-effect:none;fill:#5f5fd3;fill-opacity:1;fill-rule:nonzero;stroke:none;stroke-linecap:butt;stroke-linejoin:miter;stroke-miterlimit:4;stroke-dasharray:none;stroke-dashoffset:0;stroke-opacity:1;-inkscape-stroke:none;color-rendering:auto;image-rendering:auto;shape-rendering:auto;text-rendering:auto;enable-background:accumulate;stop-color:#000000;stop-opacity:1" d="m 17.206715,60.397261 c -0.291554,-0.226504 -0.0809,-0.771605 -0.144472,-1.123918 0.0092,-6.300966 0.0183,-12.601933 0.02745,-18.902899 0.282376,-0.09044 0.489342,0.243506 0.749095,0.407704 1.139765,0.825149 2.360571,1.542941 3.620391,2.141277 0.517009,0.238782 1.068349,0.473441 1.602839,0.666183 0.313653,0.07531 0.563317,0.241869 0.884986,0.32929 0.435077,0.134017 0.932836,0.199328 1.316153,0.398539 0.941515,0.119373 1.868002,0.405187 2.823849,0.47186 1.337306,0.19624 2.69771,0.07615 4.044438,0.100585 1.412763,-0.16571 2.836851,-0.361853 4.197043,-0.784543 0.747046,-0.164162 1.46276,-0.475962 2.183866,-0.719876 1.248881,-0.542967 2.506929,-1.124412 3.623466,-1.915148 0.413624,-0.214206 0.805688,-0.55375 1.189835,-0.815562 0.284022,-0.402862 0.764841,-0.377987 0.620371,0.196078 0,6.439661 0,12.879323 0,19.318984 -0.0519,0.484736 -0.64483,0.184961 -0.974616,0.266754 -1.910188,0 -3.820376,0 -5.730564,0 -0.316494,-0.403143 -0.08509,-0.969798 -0.15552,-1.446373 -5.7e-5,-3.332828 -1.14e-4,-6.665657 -1.71e-4,-9.998485 -0.293763,-0.150273 -0.778896,0.12627 -1.150547,0.13578 -0.368326,0.106958 -0.744484,0.169069 -1.111292,0.23358 -0.459186,0.115549 -0.144069,0.746753 -0.236684,1.106424 0,3.268554 0,6.537109 0,9.805663 -0.276853,0.329307 -0.787985,0.09031 -1.171588,0.160672 -2.304632,-0.0078 -4.609265,-0.0155 -6.913897,-0.02325 -0.01733,-3.655945 -0.03467,-7.311891 -0.052,-10.967836 -0.826539,-0.244231 -1.700697,-0.307715 -2.520493,-0.56005 -0.0091,3.813746 -0.01824,7.627491 -0.02736,11.441237 -0.362935,0.195702 -0.873658,0.03583 -1.295657,0.08942 -1.798405,-0.0123 -3.605913,0.0411 -5.398923,-0.01209 z" id="SvgjsPath1793"></path></g><g id="SvgjsG1792" transform="translate(-9.9473389e-8,-3.9130752)"><path style="color:#000000;font-style:normal;font-variant:normal;font-weight:normal;font-stretch:normal;font-size:medium;line-height:normal;font-family:Abel;font-variant-ligatures:normal;font-variant-position:normal;font-variant-caps:normal;font-variant-numeric:normal;font-variant-alternates:normal;font-variant-east-asian:normal;font-feature-settings:normal;font-variation-settings:normal;text-indent:0;text-align:start;text-decoration-line:none;text-decoration-style:solid;text-decoration-color:#000000;letter-spacing:normal;word-spacing:normal;text-transform:none;writing-mode:lr-tb;direction:ltr;text-orientation:mixed;dominant-baseline:auto;baseline-shift:baseline;text-anchor:start;white-space:normal;shape-padding:0;shape-margin:0;inline-size:0;clip-rule:nonzero;display:inline;overflow:visible;visibility:visible;isolation:auto;mix-blend-mode:normal;color-interpolation:sRGB;color-interpolation-filters:linearRGB;solid-color:#000000;solid-opacity:1;vector-effect:none;fill:#d5d5ff;fill-opacity:1;fill-rule:nonzero;stroke:none;stroke-linecap:butt;stroke-linejoin:miter;stroke-miterlimit:4;stroke-dasharray:none;stroke-dashoffset:0;stroke-opacity:1;-inkscape-stroke:none;color-rendering:auto;image-rendering:auto;shape-rendering:auto;text-rendering:auto;enable-background:accumulate;stop-color:#000000;stop-opacity:1" d="M 32.263468,47.328216 C 30.069691,47.14899 27.865883,46.696828 25.871255,45.765533 22.923137,44.4855 20.336441,42.367589 18.4321,39.774833 18.084566,39.273054 17.69863,38.753619 17.444401,38.21286 c 0.07439,-0.619212 0.632815,-1.069771 0.92178,-1.612837 0.888303,-1.266687 1.988323,-2.378192 3.148422,-3.394842 1.289475,-1.053845 2.691923,-1.961752 4.217072,-2.637133 0.990557,-0.48172 2.042596,-0.813129 3.094621,-1.097128 1.490056,-0.354953 3.04132,-0.583284 4.587427,-0.493111 1.125531,0.02768 2.261046,-0.04242 3.355845,0.269381 3.818251,0.7117 7.385385,2.682364 10.020381,5.534591 0.688884,0.746803 1.350671,1.5523 1.904611,2.391773 0.113844,0.416247 0.7755,0.78062 0.441618,1.234476 -1.194246,1.939251 -2.717657,3.6722 -4.51521,5.072145 -1.512226,1.169521 -3.206264,2.090884 -4.999956,2.765623 -1.357882,0.494631 -2.771169,0.831372 -4.211735,0.970457 -1.037181,0.154986 -2.101753,0.175553 -3.145809,0.111961 z" id="SvgjsPath1791"></path><path style="color:#000000;font-style:normal;font-variant:normal;font-weight:normal;font-stretch:normal;font-size:medium;line-height:normal;font-family:Abel;font-variant-ligatures:normal;font-variant-position:normal;font-variant-caps:normal;font-variant-numeric:normal;font-variant-alternates:normal;font-variant-east-asian:normal;font-feature-settings:normal;font-variation-settings:normal;text-indent:0;text-align:start;text-decoration-line:none;text-decoration-style:solid;text-decoration-color:#000000;letter-spacing:normal;word-spacing:normal;text-transform:none;writing-mode:lr-tb;direction:ltr;text-orientation:mixed;dominant-baseline:auto;baseline-shift:baseline;text-anchor:start;white-space:normal;shape-padding:0;shape-margin:0;inline-size:0;clip-rule:nonzero;display:inline;overflow:visible;visibility:visible;isolation:auto;mix-blend-mode:normal;color-interpolation:sRGB;color-interpolation-filters:linearRGB;solid-color:#000000;solid-opacity:1;vector-effect:none;fill:#ffffff;fill-opacity:1;fill-rule:nonzero;stroke:none;stroke-linecap:butt;stroke-linejoin:miter;stroke-miterlimit:4;stroke-dasharray:none;stroke-dashoffset:0;stroke-opacity:1;-inkscape-stroke:none;color-rendering:auto;image-rendering:auto;shape-rendering:auto;text-rendering:auto;enable-background:accumulate;stop-color:#000000;stop-opacity:1" d="m 34.095275,43.548044 c 0.911653,-0.111792 1.801039,-0.505814 2.508448,-1.054677 1.259065,-0.895607 2.017971,-2.37706 2.150478,-3.903392 0.161465,-1.573063 -0.458611,-3.197698 -1.612827,-4.278428 -0.368786,-0.435636 -0.882963,-0.784821 -1.390673,-1.00021 -0.215121,-0.142725 -0.624609,-0.341449 -0.976764,-0.393302 -1.039476,-0.32596 -2.163908,-0.237383 -3.199756,0.08035 -1.681639,0.558934 -3.040023,2.008177 -3.50549,3.714681 -0.378701,1.559746 -0.157572,3.311201 0.830108,4.613508 1.028196,1.455227 2.801502,2.340441 4.585087,2.277565 0.205822,0.01628 0.407616,-0.03603 0.611389,-0.0561 z" id="SvgjsPath1790"></path><path style="color:#000000;font-style:normal;font-variant:normal;font-weight:normal;font-stretch:normal;font-size:medium;line-height:normal;font-family:Abel;font-variant-ligatures:normal;font-variant-position:normal;font-variant-caps:normal;font-variant-numeric:normal;font-variant-alternates:normal;font-variant-east-asian:normal;font-feature-settings:normal;font-variation-settings:normal;text-indent:0;text-align:start;text-decoration-line:none;text-decoration-style:solid;text-decoration-color:#000000;letter-spacing:normal;word-spacing:normal;text-transform:none;writing-mode:lr-tb;direction:ltr;text-orientation:mixed;dominant-baseline:auto;baseline-shift:baseline;text-anchor:start;white-space:normal;shape-padding:0;shape-margin:0;inline-size:0;clip-rule:nonzero;display:inline;overflow:visible;visibility:visible;isolation:auto;mix-blend-mode:normal;color-interpolation:sRGB;color-interpolation-filters:linearRGB;solid-color:#000000;solid-opacity:1;vector-effect:none;fill:#d5d5ff;fill-opacity:1;fill-rule:nonzero;stroke:none;stroke-linecap:butt;stroke-linejoin:miter;stroke-miterlimit:4;stroke-dasharray:none;stroke-dashoffset:0;stroke-opacity:1;-inkscape-stroke:none;color-rendering:auto;image-rendering:auto;shape-rendering:auto;text-rendering:auto;enable-background:accumulate;stop-color:#000000;stop-opacity:1" d="m 32.891633,42.198154 c -1.447734,-0.147542 -2.794771,-1.15425 -3.300609,-2.520947 -0.672025,-1.498021 -0.221014,-3.363604 0.962615,-4.479665 0.669085,-0.621049 1.514255,-1.035292 2.444121,-1.081237 0.816354,-0.08531 1.66649,0.07229 2.373556,0.501111 0.69676,0.398448 1.272952,0.986758 1.60243,1.685687 0.443199,0.716546 0.462368,1.556167 0.389851,2.369257 0.0031,0.711779 -0.379447,1.387045 -0.774364,1.957951 -0.839518,1.117385 -2.311831,1.738087 -3.6976,1.567843 z" id="SvgjsPath1789"></path></g></g></g><text xml:space="preserve" style="font-weight:300;font-size:8.35182px;line-height:0.7;font-family:'Hiragino Mincho Pro';-inkscape-font-specification:'Hiragino Mincho Pro Light';text-align:center;letter-spacing:0.584627px;writing-mode:lr-tb;direction:ltr;text-anchor:middle;fill:#193d6f;fill-opacity:1;stroke:#4d4d4d;stroke-width:0.163905;stroke-linejoin:round;stroke-opacity:1;paint-order:stroke fill markers" x="33.279808" y="56.344368" id="SvgjsText1788" svgjs:data="{&quot;leading&quot;:&quot;1.3&quot;}"><tspan sodipodi:role="line" id="SvgjsTspan1787" x="33.572121" y="56.344368" style="font-style:normal;font-variant:normal;font-weight:600;font-stretch:normal;font-family:'Gill Sans';-inkscape-font-specification:'Gill Sans Semi-Bold';fill:#193d6f;fill-opacity:1;stroke:#4d4d4d;stroke-width:0.163905;stroke-opacity:1">TCE<tspan style="fill:#5555ff;stroke:#5555ff;stroke-width:0.163905" id="SvgjsTspan1786">PE</tspan>R</tspan></text></svg><style>@media (prefers-color-scheme: light) { :root { filter: none; } }
@media (prefers-color-scheme: dark) { :root { filter: none; } }
</style></svg>